<svg version="1.1" viewBox="0.0 0.0 300.0 300.0" fill="none" stroke="none" stroke-linecap="square" stroke-miterlimit="10" xmlns:xlink="http://www.w3.org/1999/xlink" xmlns="http://www.w3.org/2000/svg"><clipPath id="g7a20ade6a9_0_15.0"><path d="m0 0l300.0 0l0 300.0l-300.0 0l0 -300.0z" clip-rule="nonzero"/></clipPath><g clip-path="url(#g7a20ade6a9_0_15.0)"><path fill="#000000" fill-opacity="0.0" d="m0 0l300.0 0l0 300.0l-300.0 0z" fill-rule="evenodd"/><path fill="#073763" d="m150.517 43.996452l71.99785 49.29637l-12.566269 0l-57.129196 -39.61497c-0.9037323 -0.60985184 -1.721405 -0.91477585 -2.5390625 -0.91477585c-0.79615784 0 -1.5492706 0.304924 -2.3239136 0.91477585l-15.126862 10.570766c-1.2695312 1.2197037 -1.7859497 3.0238495 -1.011322 4.853409c0.6885681 1.0164185 1.6138153 1.7787323 2.6896973 1.7787323c0.5379486 0 1.075882 -0.1778717 1.6568604 -0.5590286l14.352219 -9.986328l47.63994 32.95742l-95.8178 0l21.280891 -14.204475c1.2695389 -1.2197037 1.7859573 -3.0238495 1.011322 -4.853401c-0.6885605 -1.0164185 -1.6138153 -1.7533264 -2.6896973 -1.7533264c-0.51641846 0 -1.0758743 0.15246582 -1.6568527 0.5590286l-29.973999 20.862022l-12.566269 0l72.77247 -49.90622zm81.98201 56.8687l0 17.25373l-164.73863 0l0 -17.25373zm-128.61061 23.911278c1.0328445 0 1.7859573 0.304924 2.3023834 1.1942902c0.7746353 0.60985565 1.0328445 1.5246353 1.0328445 2.718933c0 1.8295441 -1.2910538 3.3287659 -2.8188019 3.3287659c-1.0328445 0 -1.5492706 -0.58444214 -2.3023834 -1.1942902c-0.710083 -1.0418243 -1.7644424 -1.4992218 -2.775772 -1.4992218c-0.47338104 0 -0.9252548 0.101638794 -1.3340912 0.2795105c-1.5277481 0.91477966 -2.5605927 2.4140015 -2.5605927 4.243561l0 98.61815l-11.791634 0l0 -98.61815c0 -1.8295593 -1.0113297 -3.6336975 -2.5605927 -4.243561c-0.34428406 -0.15245056 -0.710083 -0.22868347 -1.1189117 -0.22868347c-1.075882 0 -2.3023834 0.559021 -3.2276382 1.4483948c-0.5164261 0.8893738 -1.2910538 1.1942902 -2.0441742 1.1942902c-1.0328445 0 -1.8074722 -0.58444214 -2.3238983 -1.1942902c-0.7531128 -0.609848 -1.011322 -1.5246277 -1.011322 -2.7189178c0 -1.8295593 1.5277481 -3.3287811 3.3352203 -3.3287811zm62.25038 0.304924c0.7746277 0 1.5492554 0.58444214 2.3023682 1.1942978c0.5164337 0.91477203 1.0328522 1.5246277 1.0328522 2.7189178c0 1.8295593 -1.2910614 3.3287811 -3.077011 3.3287811c-0.77464294 0 -1.5277557 -0.30493164 -2.0441742 -1.1942902c-0.6455231 -0.9656067 -1.6783752 -1.4229889 -2.6896973 -1.4229889c-0.6024933 0 -1.1834717 0.1778717 -1.6783752 0.5082092c-1.5277405 0.609848 -2.5605927 2.1090698 -2.5605927 3.9386292l0 98.923065l-11.770111 0l0 -98.923065c0 -1.8295593 -1.0328522 -3.6337128 -2.5605927 -3.9386292c-0.5809784 -0.33033752 -1.1619568 -0.5082092 -1.7214203 -0.5082092c-0.9037323 0 -1.7429199 0.4573822 -2.388443 1.4229889c-0.7746277 0.8893585 -1.2695465 1.1942902 -2.3023834 1.1942902c-1.0328369 0 -1.5492706 -0.30493164 -2.3023834 -1.1942902c-0.51641846 -0.6098633 -0.7746277 -1.524643 -0.7746277 -2.4394073c0 -2.1090775 1.5277405 -3.6082993 3.077011 -3.6082993zm61.497253 0c1.011322 0 1.5277405 0.27951813 2.3023834 1.1942978c0.51641846 0.609848 0.7746277 1.5246277 0.7746277 2.7189178c-0.25820923 1.5246277 -1.5492706 3.0238495 -2.8188019 3.0238495c-0.7746277 0 -1.5492706 -0.30491638 -2.065689 -1.1942902c-0.6885681 -1.0418243 -1.8720245 -1.4992218 -2.9479065 -1.4992218c-0.51641846 0 -0.9898071 0.101638794 -1.3986511 0.2795105c-1.5492554 0.91477966 -2.5605927 2.4140015 -2.5605927 4.243561l0 98.61815l-11.791626 0l0 -35.396835c0 -1.8041382 -1.2695465 -3.3287659 -2.8188019 -3.3287659c-1.5277557 0 -2.8188019 1.5246277 -2.8188019 3.3287659l0 36.311615c-1.785965 1.219696 -2.5605927 3.0238495 -2.5605927 5.1329193l0 5.158325l-32.53459 0l0 -4.548477c0 -2.4140015 -0.77464294 -4.2181396 -2.5605927 -5.437851l0 -95.00986c0.7531128 0.45739746 1.5062256 0.73690796 2.2593384 0.73690796c0.25820923 0 0.5379486 -0.050811768 0.8176727 -0.12704468c4.604767 0 8.456406 -4.5230713 8.456406 -10.29126c0 -1.4992142 0 -2.7189178 -0.25820923 -3.9132156l15.105347 0c-0.49490356 0.88936615 -0.49490356 2.1090698 -0.7531128 3.023857c0 3.0238495 0.7531128 5.7427673 2.5605927 8.156769c1.5277405 2.1090698 4.3465576 3.3287659 6.3907166 3.3287659c1.0328522 0 2.065689 -0.609848 2.8188019 -0.91477966l0 41.16501c0 2.109085 1.2910614 3.6082916 3.0770264 3.6082916c1.5492554 0 2.8188019 -1.4992065 2.8188019 -3.6082916l0 -45.688065c0 -1.8295593 -1.0113373 -3.6337128 -2.5605927 -4.243561c-0.47338867 -0.101638794 -0.96829224 -0.15246582 -1.4631958 -0.15246582c-1.075882 0 -2.1087341 0.33033752 -2.6251526 1.3721771c-0.7746277 0.8893585 -1.2910461 1.1942902 -2.3238983 1.1942902c-1.011322 0 -1.5277405 -0.30493164 -2.3023834 -1.1942902c-0.51641846 -0.6098633 -1.011322 -1.524643 -1.011322 -2.718933c0 -1.8295517 1.785965 -3.3287735 3.3137054 -3.3287735zm-129.38524 114.65217l0 4.243561l-17.429245 0l0 -4.243561zm29.457573 -114.65217c-0.25820923 0.88936615 -0.25820923 2.1090698 -0.7746353 3.023857c0 3.0238495 0.7746353 5.7427673 2.5821075 8.156769c1.785965 2.1090698 4.3465576 3.3287659 6.390732 3.3287659c1.0328369 0 2.044159 -0.609848 3.077011 -0.91477966l0 95.00986c-1.785965 1.2197113 -2.5605927 3.0238495 -2.5605927 5.1329193l0 5.1583405l-32.53459 0l0 -4.853409c0.5164261 -2.4140015 -0.7746353 -4.2181396 -2.3023834 -5.437851l0 -95.00986c0.5594635 0.45739746 1.248024 0.73690796 2.0011368 0.73690796c0.25820923 0 0.537941 -0.050811768 0.8176727 -0.12704468c4.8629684 0 8.7146225 -4.5230713 8.7146225 -10.29126c0 -1.4992142 0 -2.7189178 -0.5164261 -3.9132156zm32.276375 114.65217l0 4.243561l-17.14952 0l0 -4.243561zm61.497253 0l0 4.243561l-17.17102 0l0 -4.243561zm7.4235687 11.48555c1.5492706 0 2.5605927 1.5246277 2.5605927 3.0492554l0 3.9132233l-98.37839 0c-1.5277557 0 -2.8188171 1.5246277 -2.8188171 3.6336975c0 1.8295593 1.2910614 3.3287659 2.8188171 3.3287659l101.71362 0c1.5277405 0 2.8188019 1.5246277 2.8188019 3.3287964l0 3.9386292l-175.23921 0l0 -3.633728c0 -1.8041382 1.2910538 -3.3287659 2.8188057 -3.3287659l53.299057 0c1.5277481 0 2.8188019 -1.4992065 2.8188019 -3.3287659c0 -1.8041382 -1.2910538 -3.3287659 -2.8188019 -3.3287659l-49.70562 0l0 -4.5230865c0 -2.1344757 1.2695312 -3.0492554 2.5605927 -3.0492554zm-79.03409 -214.56625c-0.96829224 0 -1.9150696 0.2286911 -2.6896973 0.68608093l-82.75663 57.173626c-0.49490738 0 -0.7531166 0.304924 -0.7531166 0.91477203c-1.2910538 0.8893738 -2.3238983 3.3287811 -2.3238983 5.132927l0 17.863579c0 3.3287735 2.065689 6.047699 4.626278 6.657547c-0.51641846 1.1942978 -0.7746277 2.1090698 -0.7746277 3.023857c0 3.0238495 0.7746277 5.7427673 2.5605927 8.156769c1.7859573 2.1090698 4.368065 3.3287659 6.412239 3.3287659c1.011322 0 2.0441666 -0.609848 3.077011 -0.91477966l0 95.00986c-1.8074722 1.2197113 -2.5605927 3.0238495 -2.5605927 5.1329193l0 5.1583405l-3.5934372 0c-4.8629684 0 -8.714619 4.5230713 -8.714619 9.986328l0 4.828003c-3.5934372 1.219696 -6.412243 5.158325 -6.412243 9.986298l0 3.9386292l-6.132511 0c-1.5492668 0 -2.8188019 1.4992371 -2.8188019 3.3287964c0 1.8041382 1.2695351 3.3287659 2.8188019 3.3287659l200.32872 0c1.5492554 0 2.8188019 -1.5246277 2.8188019 -3.3287659c0 -1.8295593 -1.2695465 -3.3287964 -2.8188019 -3.3287964l-6.1325226 0l0 -3.9386292c0 -4.548462 -2.5605927 -8.46167 -6.4122314 -9.986298l0 -4.5230865c0 -5.768173 -3.851654 -10.2912445 -8.71463 -10.2912445l-1.2695312 0l0 -4.853409c0 -2.4140015 -1.0328522 -4.2181396 -2.5605927 -5.437851l0 -95.00986c0.7315979 0.45739746 1.4847107 0.73690796 2.1302338 0.73690796c0.2582245 0 0.47338867 -0.050811768 0.6885681 -0.12704468c4.862976 0 8.6931 -4.5230713 8.6931 -10.29126c0 -1.8041458 -0.25820923 -3.3287735 -1.011322 -5.4378433c1.5277557 -0.91477966 2.5605927 -3.3287735 2.5605927 -5.4378433l0 -17.863586c0 -2.7189178 -1.2910614 -4.8279953 -3.077011 -6.047699l-82.49843 -56.868694c-0.7746277 -0.45738983 -1.721405 -0.68608093 -2.6896973 -0.68608093z" fill-rule="evenodd"/></g></svg>